# xmcd CD database file
#
# Track frame offsets:
#	150
#	15264
#	28200
#	41855
#	51531
#	69211
#	79028
#	90407
#	102939
#	114193
#	125687
#	140169
#	155505
#	171244
#	185419
#	198554
#	222901
#	249235
#	262398
#	274576
#	287626
#	311897
#	327717
#
# Disc length: 4577 seconds
#
# Revision: 3
# Processed by: cddbd v1.5.2PL0 Copyright (c) Steve Scherf et al.
# Submitted via: CDex 1.70beta2
#
DISCID=5d11df17
DTITLE=Nina Simone - The Complete 1955-1959. CD 2
DYEAR=2011
DGENRE=Jazz
TTITLE0=Blue Prelude
TTITLE1=Children Go Where I Send You
TTITLE2=Tomorrow (We Will Meet Once More)
TTITLE3=Stompin' at the Savoy
TTITLE4=It Might as Well Be Spring
TTITLE5=You've Been Gone Too Long
TTITLE6=That's Him over There
TTITLE7=Chilly Winds Don't Blow
TTITLE8=Theme from Middle of the Night
TTITLE9=Can't Get Out of This Mood
TTITLE10=Willow Weep for Me
TTITLE11=Solitaire
TTITLE12=Black Is the Color of My True Love's Hair
TTITLE13=Exactly Like You
TTITLE14=The Other Woman
TTITLE15=Under the Lowest
TTITLE16=I Don't Want Him (Anymore)
TTITLE17=Summertime [Instrumental]
TTITLE18=Summertime [Vocal Version]
TTITLE19=Cotton Eyed Joe
TTITLE20=Return Home
TTITLE21=Wild Is the Wind
TTITLE22=Fine and Mellow
EXTD=YEAR: 2011
EXTT0=
EXTT1=
EXTT2=
EXTT3=
EXTT4=
EXTT5=
EXTT6=
EXTT7=
EXTT8=
EXTT9=
EXTT10=
EXTT11=
EXTT12=
EXTT13=
EXTT14=
EXTT15=
EXTT16=
EXTT17=
EXTT18=
EXTT19=
EXTT20=
EXTT21=
EXTT22=
PLAYORDER=
